<svg width="45" height="45" viewBox="0 0 45 45" fill="none" xmlns="http://www.w3.org/2000/svg">
<path fill-rule="evenodd" clip-rule="evenodd" d="M42.6569 1.96022C40.0433 -0.653396 35.806 -0.653418 33.1923 1.96022L11.8077 23.3448C11.5218 23.6308 11.319 23.989 11.2209 24.3812L8.99005 33.3047C8.79998 34.065 9.02273 34.8692 9.57683 35.4231C10.1309 35.9773 10.9351 36.2001 11.6954 36.0101L20.6187 33.7792C21.0111 33.681 21.3692 33.4782 21.6552 33.1922L43.0397 11.8077C45.6534 9.19412 45.6534 4.95659 43.0397 2.34297L42.6569 1.96022ZM36.3472 5.11514C37.2183 4.24394 38.6309 4.24394 39.502 5.11514L39.8849 5.49788C40.756 6.3691 40.756 7.78162 39.8849 8.65282L37.6172 10.9205L34.1473 7.31504L36.3472 5.11514ZM30.9918 10.4705L34.4616 14.076L18.9373 29.6006L14.2203 30.7798L15.3995 26.0628L30.9918 10.4705ZM4.46172 13.768C4.46172 12.5359 5.46052 11.5371 6.69258 11.5371H17.8469C19.079 11.5371 20.0777 10.5383 20.0777 9.30622C20.0777 8.07416 19.079 7.07535 17.8469 7.07535H6.69258C2.99638 7.07535 0 10.0717 0 13.768V38.3074C0 42.0037 2.99638 45 6.69258 45H31.232C34.9283 45 37.9246 42.0037 37.9246 38.3074V27.1531C37.9246 25.9212 36.9258 24.9222 35.6937 24.9222C34.4616 24.9222 33.4629 25.9212 33.4629 27.1531V38.3074C33.4629 39.5395 32.4641 40.5383 31.232 40.5383H6.69258C5.46052 40.5383 4.46172 39.5395 4.46172 38.3074V13.768Z" fill="black"/>
</svg>
