<svg width="46" height="34" viewBox="0 0 46 34" fill="none" xmlns="http://www.w3.org/2000/svg">
<path fill-rule="evenodd" clip-rule="evenodd" d="M38.6578 4.02091C39.4681 3.21545 39.4681 1.90955 38.6578 1.10409C37.8476 0.298638 36.5338 0.298638 35.7236 1.10409L26.883 9.89225C25.6474 9.16648 24.206 8.75 22.6669 8.75C18.0833 8.75 14.3676 12.4436 14.3676 17C14.3676 18.53 14.7866 19.9628 15.5167 21.191L6.67599 29.9791C5.86573 30.7845 5.86573 32.0905 6.67599 32.8959C7.48628 33.7013 8.79998 33.7013 9.61026 32.8959L18.4509 24.1078C19.6864 24.8336 21.1278 25.25 22.6669 25.25C27.2504 25.25 30.9662 21.5563 30.9662 17C30.9662 15.47 30.5473 14.0372 29.8172 12.8091L38.6578 4.02091ZM23.7417 13.0146C23.3989 12.9237 23.0387 12.875 22.6669 12.875C20.3751 12.875 18.5173 14.7218 18.5173 17C18.5173 17.3696 18.5662 17.7276 18.6577 18.0684L23.7417 13.0146ZM21.5922 20.9854L26.6761 15.9316C26.7676 16.2723 26.8166 16.6304 26.8166 17C26.8166 19.2782 24.9588 21.125 22.6669 21.125C22.2951 21.125 21.9349 21.0763 21.5922 20.9854ZM30.4789 2.19269C28.121 1.16101 25.5043 0.5 22.6669 0.5C16.7486 0.5 11.789 3.3764 8.13922 6.49352C4.47624 9.62194 1.93435 13.1588 0.806262 14.8752C-0.0460979 16.1719 -0.0460979 17.8281 0.806262 19.1248C1.75838 20.5735 3.71764 23.3189 6.50804 26.0212L9.44251 23.1042C7.01338 20.7597 5.2621 18.347 4.36698 17C5.42593 15.4065 7.68318 12.3214 10.8435 9.62231C14.1062 6.83569 18.135 4.625 22.6669 4.625C24.2685 4.625 25.8072 4.90107 27.2716 5.38107L30.4789 2.19269ZM22.6669 29.375C21.0656 29.375 19.5269 29.0988 18.0625 28.6189L14.8551 31.8073C17.2129 32.839 19.8298 33.5 22.6669 33.5C28.5854 33.5 33.545 30.6236 37.1949 27.5066C40.8578 24.378 43.3997 20.8412 44.5277 19.1248C45.3801 17.8281 45.3801 16.1719 44.5277 14.8752C43.5756 13.4265 41.6163 10.6811 38.8259 7.97885L35.8915 10.8959C38.3207 13.2403 40.072 15.653 40.9671 17C39.9081 18.5935 37.6509 21.6786 34.4905 24.3778C31.2279 27.1644 27.199 29.375 22.6669 29.375Z" fill="black"/>
</svg>
