<svg width="45" height="33" viewBox="0 0 45 33" fill="none" xmlns="http://www.w3.org/2000/svg">
<path fill-rule="evenodd" clip-rule="evenodd" d="M10.6765 23.8778C7.51619 21.1786 5.25894 18.0935 4.19999 16.5C5.25894 14.9065 7.51619 11.8214 10.6765 9.12231C13.9392 6.33569 17.968 4.125 22.4999 4.125C27.032 4.125 31.0609 6.33569 34.3236 9.12231C37.4839 11.8214 39.7411 14.9065 40.8001 16.5C39.7411 18.0935 37.4839 21.1786 34.3236 23.8778C31.0609 26.6644 27.032 28.875 22.4999 28.875C17.968 28.875 13.9392 26.6644 10.6765 23.8778ZM22.4999 0C16.5816 0 11.622 2.8764 7.97223 5.99352C4.30925 9.12194 1.76735 12.6588 0.63927 14.3752C-0.21309 15.6719 -0.21309 17.3281 0.63927 18.6248C1.76735 20.3412 4.30925 23.878 7.97223 27.0066C11.622 30.1236 16.5816 33 22.4999 33C28.4184 33 33.3781 30.1236 37.0279 27.0066C40.6908 23.878 43.2327 20.3412 44.3607 18.6248C45.2131 17.3281 45.2131 15.6719 44.3607 14.3752C43.2327 12.6588 40.6908 9.12194 37.0279 5.99352C33.3781 2.8764 28.4184 0 22.4999 0ZM18.3503 16.5C18.3503 14.2218 20.2083 12.375 22.4999 12.375C24.7918 12.375 26.6496 14.2218 26.6496 16.5C26.6496 18.7782 24.7918 20.625 22.4999 20.625C20.2083 20.625 18.3503 18.7782 18.3503 16.5ZM22.4999 8.25C17.9164 8.25 14.2007 11.9436 14.2007 16.5C14.2007 21.0563 17.9164 24.75 22.4999 24.75C27.0836 24.75 30.7992 21.0563 30.7992 16.5C30.7992 11.9436 27.0836 8.25 22.4999 8.25Z" fill="black"/>
</svg>
