<svg width="45" height="45" viewBox="0 0 45 45" fill="none" xmlns="http://www.w3.org/2000/svg">
<path fill-rule="evenodd" clip-rule="evenodd" d="M23.1292 4.30475C22.7183 4.19252 22.2818 4.19252 21.8708 4.30475C21.7526 4.33705 21.5447 4.41788 21.1026 4.73183C20.6378 5.062 20.0685 5.53454 19.1816 6.274L7.39245 16.1025C5.94717 17.3075 5.53745 17.6709 5.2526 18.0727C4.9786 18.4593 4.77448 18.8856 4.64846 19.3345C4.51744 19.8013 4.50012 20.3297 4.50012 22.1435V32.697C4.50012 34.5351 4.50194 35.7846 4.58739 36.7498C4.67062 37.69 4.82141 38.1698 5.00677 38.5043C5.4337 39.2752 6.10384 39.9039 6.92573 40.3042C7.28251 40.4781 7.79414 40.6195 8.79637 40.6975C9.82551 40.7777 11.1578 40.7794 13.1175 40.7794H13.5V34.4486C13.5 29.7867 17.5294 26.0074 22.5001 26.0074C27.4705 26.0074 31.5 29.7867 31.5 34.4486V40.7794H31.8825C33.8422 40.7794 35.1745 40.7777 36.2036 40.6975C37.2057 40.6195 37.7174 40.4781 38.0742 40.3042C38.8962 39.9039 39.5662 39.2752 39.9932 38.5043C40.1786 38.1698 40.3294 37.69 40.4126 36.7498C40.4979 35.7846 40.4999 34.5351 40.4999 32.697V22.1435C40.4999 20.3297 40.4826 19.8013 40.3514 19.3345C40.2254 18.8856 40.0214 18.4593 39.7473 18.0727C39.4625 17.6709 39.0528 17.3075 37.6076 16.1025L25.8184 6.274C24.9314 5.53454 24.3622 5.062 23.8973 4.73183C23.4552 4.41788 23.2473 4.33705 23.1292 4.30475ZM20.6126 0.252507C21.8453 -0.0841689 23.1546 -0.0841689 24.3874 0.252507C25.2426 0.486137 25.9518 0.896968 26.6135 1.36689C27.2367 1.80946 27.9387 2.39462 28.7469 3.06845L40.5971 12.9481C40.661 13.0012 40.7238 13.0537 40.7861 13.1055C41.96 14.083 42.8465 14.8215 43.4949 15.7361C44.0428 16.5093 44.4511 17.362 44.7031 18.2599C45.0013 19.322 45.0008 20.4341 44.9999 21.9063C44.9999 21.9843 44.9999 22.0633 44.9999 22.1435V32.7856C44.9999 34.5129 44.9999 35.9386 44.8971 37.0993C44.7904 38.3049 44.5612 39.4126 43.9865 40.45C43.1326 41.9918 41.7923 43.2487 40.1487 44.0495C39.0424 44.5885 37.8616 44.8035 36.576 44.9036C35.3385 45 33.8186 45 31.9768 45H31.0613C31.0437 45 31.0262 45 31.0082 45C30.7357 45 30.4103 45.0002 30.1237 44.9778C29.7914 44.9521 29.3157 44.8856 28.8192 44.6436C28.2027 44.3433 27.7 43.8718 27.3798 43.2938C27.122 42.8279 27.0511 42.3818 27.0234 42.0701C26.9996 41.8014 26.9998 41.4961 26.9998 41.2405L27 34.4486C27 32.1175 24.9852 30.228 22.5001 30.228C20.0148 30.228 18 32.1175 18 34.4486L18 41.2405C18.0001 41.4961 18.0003 41.8014 17.9765 42.0701C17.9489 42.3818 17.878 42.8279 17.62 43.2938C17.2998 43.8718 16.7972 44.3433 16.1808 44.6436C15.6842 44.8856 15.2085 44.9521 14.8762 44.9778C14.5897 45.0002 14.2642 45 13.9917 45C13.9738 45 13.9562 45 13.9388 45H13.0231C11.1814 45 9.66144 45 8.42393 44.9036C7.1384 44.8035 5.95752 44.5885 4.85134 44.0495C3.20757 43.2487 1.8673 41.9918 1.01343 40.45C0.438832 39.4126 0.209627 38.3049 0.102865 37.0993C0.000108403 35.9386 0.000131158 34.5129 0.000153658 32.7856V22.1435C0.000153658 22.0633 0.000108566 21.9843 8.60666e-05 21.9063C-0.000746427 20.4341 -0.00135408 19.322 0.296814 18.2599C0.548879 17.362 0.957138 16.5093 1.50514 15.7361C2.15341 14.8215 3.0401 14.083 4.21385 13.1055C4.27604 13.0537 4.33902 13.0012 4.40283 12.9481L16.2531 3.06848C17.0613 2.39462 17.7631 1.80946 18.3864 1.36689C19.0482 0.896968 19.7574 0.486137 20.6126 0.252507Z" fill="black"/>
</svg>
