<svg width="45" height="45" viewBox="0 0 45 45" fill="none" xmlns="http://www.w3.org/2000/svg">
<path d="M22.7404 44.9999C21.794 44.9986 20.8484 44.9382 19.9096 44.8185C14.9097 44.1687 10.2655 41.8869 6.70025 38.3285C3.13498 34.77 0.848792 30.1349 0.197704 25.1446C-0.554229 19.5045 0.855234 13.7891 4.14407 9.14162C7.43292 4.49421 12.3586 1.25756 17.9358 0.0791468C18.5471 -0.0594257 19.186 -0.0153341 19.7724 0.2059C20.3591 0.42716 20.8674 0.81579 21.2341 1.32334C21.6099 1.84886 21.8226 2.47309 21.8457 3.11833C21.8688 3.76355 21.7013 4.40133 21.3639 4.95225C19.7789 7.66663 19.1741 10.8412 19.6498 13.9468C20.0908 16.8002 21.4312 19.4392 23.4766 21.4807C25.5221 23.522 28.1662 24.86 31.0251 25.3001C34.14 25.7913 37.329 25.1768 40.0369 23.5635C40.594 23.2343 41.2358 23.0759 41.8822 23.108C42.5288 23.1404 43.1516 23.3618 43.6729 23.7449C44.1819 24.1044 44.5722 24.6068 44.7943 25.1884C45.0161 25.7701 45.0597 26.4044 44.9195 27.0109C43.8661 32.101 41.083 36.6719 37.0415 39.9498C33.0001 43.2277 27.948 45.0119 22.7404 44.9999ZM17.3125 4.40792C14.1782 5.32722 11.3375 7.04461 9.06952 9.39132C6.80154 11.738 5.18433 14.6333 4.37677 17.7927C3.56924 20.9519 3.59915 24.2667 4.46362 27.4109C5.32806 30.5551 6.99731 33.4209 9.30728 35.7265C11.6173 38.0319 14.4885 39.6978 17.6389 40.5607C20.7892 41.4236 24.1103 41.4535 27.2757 40.6473C30.4412 39.8414 33.3419 38.2274 35.6933 35.9637C38.0445 33.7 39.765 30.8648 40.6862 27.7367C38.2276 28.9329 35.5219 29.5377 32.7867 29.5019C30.0517 29.4664 27.3629 28.7914 24.9362 27.5311C22.5095 26.2711 20.4126 24.4608 18.8136 22.2459C17.2145 20.0307 16.1578 17.4726 15.7283 14.7762C15.1816 11.2398 15.7345 7.62103 17.3125 4.40792Z" fill="black"/>
</svg>
