<svg width="45" height="45" viewBox="0 0 45 45" fill="none" xmlns="http://www.w3.org/2000/svg">
<path d="M24.3 11.4952H20.7844V20.6409H12.2062V24.3891H20.7844V33.5348H24.3V24.3891H32.8781V20.6409H24.3V11.4952Z" fill="black"/>
<path d="M22.5 0.0106317C16.7224 -0.175415 11.1109 2.0866 6.89402 6.30152C2.6771 10.5164 0.198224 16.3409 0 22.5C0.198224 28.6591 2.6771 34.4836 6.89402 38.6985C11.1109 42.9134 16.7224 45.1754 22.5 44.9894C28.2776 45.1754 33.8891 42.9134 38.106 38.6985C42.3229 34.4836 44.8018 28.6591 45 22.5C44.8018 16.3409 42.3229 10.5164 38.106 6.30152C33.8891 2.0866 28.2776 -0.175415 22.5 0.0106317ZM22.5 41.2411C17.6545 41.4278 12.937 39.5609 9.37924 36.0487C5.82152 32.5366 3.71325 27.6651 3.51562 22.5C3.71325 17.3349 5.82152 12.4634 9.37924 8.95129C12.937 5.43915 17.6545 3.57221 22.5 3.75886C27.3455 3.57221 32.063 5.43915 35.6208 8.95129C39.1785 12.4634 41.2868 17.3349 41.4844 22.5C41.2868 27.6651 39.1785 32.5366 35.6208 36.0487C32.063 39.5609 27.3455 41.4278 22.5 41.2411Z" fill="black"/>
</svg>
