<svg width="45" height="45" viewBox="0 0 45 45" fill="none" xmlns="http://www.w3.org/2000/svg">
<path fill-rule="evenodd" clip-rule="evenodd" d="M20 5.00001C11.7157 5.00001 5.00001 11.7157 5.00001 20C5.00001 28.2843 11.7157 35 20 35C28.2843 35 35 28.2843 35 20C35 11.7157 28.2843 5.00001 20 5.00001ZM0 20C0 8.95431 8.95431 0 20 0C31.0458 0 40.0001 8.95431 40.0001 20C40.0001 24.6218 38.4323 28.8775 35.7998 32.264L44.2678 40.7323C45.2441 41.7086 45.2441 43.2916 44.2678 44.2678C43.2916 45.2441 41.7086 45.2441 40.7323 44.2678L32.264 35.7998C28.8775 38.4323 24.6218 40.0001 20 40.0001C8.95431 40.0001 0 31.0458 0 20Z" fill="black"/>
</svg>
