<svg width="45" height="45" viewBox="0 0 45 45" fill="none" xmlns="http://www.w3.org/2000/svg">
<path fill-rule="evenodd" clip-rule="evenodd" d="M22.5 14.3182C17.8515 14.3182 14.0831 17.9813 14.0831 22.5C14.0831 27.0188 17.8515 30.6818 22.5 30.6818C27.1485 30.6818 30.9169 27.0188 30.9169 22.5C30.9169 17.9813 27.1485 14.3182 22.5 14.3182ZM18.2915 22.5C18.2915 20.2408 20.1757 18.4091 22.5 18.4091C24.8244 18.4091 26.7085 20.2408 26.7085 22.5C26.7085 24.7594 24.8244 26.5909 22.5 26.5909C20.1757 26.5909 18.2915 24.7594 18.2915 22.5Z" fill="#0F1729"/>
<path fill-rule="evenodd" clip-rule="evenodd" d="M22.5 14.3182C17.8515 14.3182 14.0831 17.9813 14.0831 22.5C14.0831 27.0188 17.8515 30.6818 22.5 30.6818C27.1485 30.6818 30.9169 27.0188 30.9169 22.5C30.9169 17.9813 27.1485 14.3182 22.5 14.3182ZM18.2915 22.5C18.2915 20.2408 20.1757 18.4091 22.5 18.4091C24.8244 18.4091 26.7085 20.2408 26.7085 22.5C26.7085 24.7594 24.8244 26.5909 22.5 26.5909C20.1757 26.5909 18.2915 24.7594 18.2915 22.5Z" fill="#0F1729"/>
<path fill-rule="evenodd" clip-rule="evenodd" d="M19.9061 0.034959C20.38 -0.000347526 20.9122 -0.000140829 21.3461 2.28072e-05H23.654C24.0879 -0.000140829 24.62 -0.000347526 25.0939 0.034959C25.6541 0.0766863 26.4303 0.182784 27.2627 0.550986C28.3151 1.01637 29.2157 1.75369 29.8663 2.68255C30.3812 3.41744 30.6207 4.14307 30.7583 4.67243C30.8747 5.12047 30.9649 5.63009 31.0384 6.04575L31.3363 7.72435L31.3422 7.72748C31.4154 7.76683 31.4882 7.80666 31.5608 7.84697L31.5663 7.84992L33.5378 7.15633C33.9378 7.01546 34.4295 6.84223 34.8803 6.72019C35.4139 6.57572 36.1678 6.42045 37.0647 6.48462C38.2005 6.56587 39.2924 6.94425 40.225 7.57969C40.9613 8.08148 41.4442 8.66528 41.7634 9.10534C42.0334 9.47712 42.3015 9.91372 42.5197 10.2688L43.5756 11.9864C43.8066 12.3616 44.0882 12.8191 44.3055 13.2449C44.5614 13.7461 44.8739 14.4711 44.9684 15.3832C45.0871 16.5318 44.8703 17.6897 44.3426 18.7239C43.9234 19.5451 43.3679 20.1164 42.9466 20.4979C42.5889 20.8217 42.1594 21.1535 41.8074 21.4253L40.386 22.5L41.8074 23.5747C42.1594 23.8467 42.5889 24.1783 42.9466 24.5023C43.3679 24.8836 43.9234 25.4548 44.3424 26.2761C44.8701 27.3103 45.0871 28.4682 44.9682 29.6169C44.8739 30.529 44.5612 31.2539 44.3053 31.7553C44.088 32.1809 43.8064 32.6385 43.5756 33.0136L42.5193 34.7316C42.3013 35.0867 42.0332 35.523 41.7634 35.8946C41.444 36.3348 40.9613 36.9186 40.2248 37.4203C39.2924 38.0559 38.2003 38.4343 37.0647 38.5155C36.1678 38.5797 35.4139 38.4242 34.8803 38.2798C34.4293 38.1577 33.9376 37.9847 33.5376 37.8438L31.5661 37.1501L31.5608 37.1532C31.4882 37.1935 31.4154 37.2332 31.3422 37.2727L31.3363 37.2757L31.0384 38.9542C30.9649 39.3699 30.8747 39.8796 30.7583 40.3275C30.6207 40.8569 30.3812 41.5826 29.8663 42.3176C29.2157 43.2464 28.3151 43.9838 27.2627 44.4491C26.4303 44.8173 25.6541 44.9235 25.0939 44.9652C24.6198 45.0004 24.0879 45.0002 23.654 45H21.3461C20.9122 45.0002 20.38 45.0004 19.9061 44.9652C19.346 44.9235 18.5697 44.8173 17.7372 44.4491C16.6849 43.9838 15.7843 43.2464 15.1337 42.3176C14.6189 41.5826 14.3793 40.8569 14.2418 40.3275C14.1254 39.8796 14.0352 39.3699 13.9616 38.9542L13.6637 37.2757L13.6579 37.2727C13.5846 37.2332 13.5117 37.1935 13.4391 37.153L13.4338 37.1501L11.4624 37.8438C11.0625 37.9845 10.5707 38.1577 10.1198 38.2798C9.5861 38.4242 8.83226 38.5795 7.9354 38.5155C6.79964 38.4343 5.70765 38.0559 4.77511 37.4203C4.03876 36.9186 3.55592 36.3348 3.2366 35.8946C2.96682 35.523 2.69866 35.0865 2.48058 34.7314L1.42442 33.0136C1.19356 32.6385 0.912018 32.1809 0.694651 31.7553C0.438734 31.2539 0.12613 30.529 0.031776 29.6169C-0.08705 28.4682 0.129875 27.3103 0.657595 26.2761C1.07667 25.4548 1.63213 24.8836 2.05337 24.5023C2.41118 24.1783 2.84055 23.8467 3.19263 23.5747L4.56869 22.511V22.4891L3.19254 21.4253C2.84044 21.1535 2.41109 20.8217 2.05329 20.4979C1.63204 20.1164 1.07659 19.5451 0.657511 18.7239C0.129791 17.6897 -0.0871343 16.5318 0.0316706 15.3832C0.126024 14.4711 0.43865 13.7461 0.694546 13.2449C0.911913 12.8192 1.19348 12.3616 1.42434 11.9865L2.48047 10.2687C2.69855 9.91368 2.96674 9.47712 3.2365 9.10536C3.55584 8.6653 4.03865 8.0815 4.77503 7.57974C5.70754 6.94427 6.79955 6.56589 7.93531 6.48464C8.83216 6.42048 9.58602 6.57575 10.1197 6.72022C10.5705 6.84227 11.0623 7.0155 11.4623 7.15637L13.4338 7.84994L13.4391 7.84697C13.5117 7.80668 13.5846 7.76683 13.6579 7.72748L13.6637 7.72435L13.9616 6.04577C14.0352 5.63011 14.1254 5.12047 14.2418 4.67243C14.3793 4.14307 14.6189 3.41744 15.1337 2.68255C15.7843 1.75369 16.6849 1.01637 17.7372 0.550986C18.5697 0.182784 19.346 0.0766863 19.9061 0.034959ZM26.9059 6.82425C26.7316 5.84251 26.6445 5.35166 26.3878 4.98512C26.1709 4.6755 25.8708 4.42972 25.52 4.27459C25.1046 4.09095 24.5923 4.09095 23.5675 4.09095H21.4325C20.4078 4.09095 19.8952 4.09095 19.48 4.27459C19.1293 4.42972 18.8292 4.6755 18.6122 4.98512C18.3555 5.35166 18.2683 5.84251 18.0941 6.82425L17.7658 8.67403C17.6486 9.33408 17.5901 9.66409 17.466 9.91777C17.3441 10.1669 17.2445 10.303 17.0424 10.4966C16.8365 10.6937 16.4557 10.8984 15.694 11.3077C15.6378 11.3379 15.5819 11.3684 15.5262 11.3994C14.7976 11.8039 14.4333 12.0061 14.1627 12.0746C13.897 12.1419 13.7315 12.1557 13.4579 12.1335C13.1793 12.111 12.8672 12.0012 12.243 11.7816L10.1102 11.0313C9.1649 10.6987 8.69225 10.5325 8.24417 10.5645C7.8656 10.5916 7.50159 10.7177 7.19075 10.9295C6.82287 11.1802 6.56499 11.5996 6.04927 12.4385L5.08265 14.0106C4.53818 14.8962 4.26593 15.339 4.21903 15.7925C4.17943 16.1754 4.25173 16.5613 4.42764 16.9061C4.63598 17.3144 5.05131 17.6354 5.88198 18.2776L7.40732 19.4568C7.9372 19.8663 8.20215 20.0712 8.36824 20.2907C8.54779 20.5282 8.62436 20.6824 8.70371 20.9667C8.77715 21.2298 8.77715 21.6532 8.77715 22.5C8.77715 23.3468 8.77715 23.7702 8.70371 24.0335C8.62434 24.3178 8.54779 24.472 8.36828 24.7093C8.20215 24.929 7.9372 25.1337 7.40727 25.5434L5.88209 26.7224C5.05142 27.3647 4.63609 27.6856 4.42773 28.0941C4.25181 28.4388 4.17951 28.8247 4.21911 29.2076C4.26604 29.6611 4.53826 30.1038 5.08273 30.9894L6.04935 32.5616C6.5651 33.4004 6.82295 33.8199 7.19083 34.0705C7.50169 34.2824 7.86568 34.4084 8.24428 34.4356C8.69233 34.4675 9.16498 34.3012 10.1103 33.9688L12.243 33.2186C12.8672 32.9989 13.1793 32.889 13.4579 32.8665C13.7316 32.8445 13.8971 32.8582 14.1628 32.9255C14.4333 32.994 14.7976 33.1963 15.5262 33.6007C15.5819 33.6315 15.6378 33.6622 15.694 33.6923C16.4557 34.1016 16.8365 34.3063 17.0424 34.5035C17.2445 34.697 17.3441 34.8333 17.466 35.0824C17.5901 35.336 17.6486 35.666 17.7658 36.326L18.0941 38.1757C18.2683 39.1575 18.3555 39.6485 18.6122 40.015C18.8292 40.3245 19.1293 40.5703 19.48 40.7254C19.8952 40.9091 20.4078 40.9091 21.4325 40.9091H23.5675C24.5923 40.9091 25.1046 40.9091 25.52 40.7254C25.8708 40.5703 26.1709 40.3245 26.3878 40.015C26.6445 39.6485 26.7316 39.1575 26.9059 38.1757L27.2343 36.326C27.3513 35.666 27.41 35.336 27.534 35.0824C27.6558 34.8333 27.7556 34.697 27.9576 34.5035C28.1636 34.3063 28.5444 34.1016 29.3059 33.6923C29.3621 33.6622 29.4181 33.6315 29.4737 33.6007C30.2024 33.1963 30.5666 32.994 30.8372 32.9255C31.103 32.8582 31.2684 32.8445 31.5421 32.8665C31.8207 32.889 32.1328 32.9989 32.7569 33.2186L34.8897 33.9688C35.835 34.3014 36.3078 34.4677 36.7558 34.4356C37.1343 34.4084 37.4984 34.2824 37.8091 34.0705C38.177 33.8199 38.4349 33.4004 38.9507 32.5616L39.9174 30.9894C40.4617 30.104 40.734 29.6611 40.781 29.2076C40.8205 28.8247 40.7481 28.4388 40.5722 28.0941C40.3639 27.6858 39.9485 27.3647 39.118 26.7224L37.5928 25.5434C37.0628 25.1337 36.7979 24.929 36.6318 24.7093C36.4523 24.472 36.3757 24.3178 36.2962 24.0335C36.2228 23.7704 36.2228 23.3468 36.2228 22.5C36.2228 21.6532 36.2228 21.2298 36.2962 20.9667C36.3757 20.6824 36.4523 20.5282 36.6318 20.2907C36.7979 20.0712 37.0628 19.8663 37.5926 19.4568L39.118 18.2776C39.9487 17.6354 40.3641 17.3143 40.5724 16.906C40.7483 16.5613 40.8205 16.1753 40.781 15.7925C40.734 15.339 40.462 14.8962 39.9174 14.0106L38.9507 12.4384C38.4349 11.5996 38.1772 11.1802 37.8094 10.9295C37.4984 10.7177 37.1345 10.5916 36.7558 10.5645C36.3078 10.5324 35.8352 10.6987 34.8897 11.0313L32.7571 11.7816C32.1328 12.0012 31.8207 12.111 31.5421 12.1335C31.2684 12.1557 31.103 12.1418 30.8372 12.0746C30.5666 12.0061 30.2024 11.8038 29.4739 11.3994C29.4181 11.3684 29.3621 11.3379 29.3062 11.3077C28.5444 10.8984 28.1636 10.6937 27.9576 10.4966C27.7556 10.303 27.6558 10.1669 27.534 9.91777C27.41 9.66409 27.3513 9.33406 27.2343 8.67403L26.9059 6.82425Z" fill="#0F1729"/>
</svg>
