<svg width="45" height="45" viewBox="0 0 45 45" fill="none" xmlns="http://www.w3.org/2000/svg">
<path fill-rule="evenodd" clip-rule="evenodd" d="M22.5 0C23.7426 0 24.75 1.00736 24.75 2.25V6.75C24.75 7.99264 23.7426 9 22.5 9C21.2574 9 20.25 7.99264 20.25 6.75V2.25C20.25 1.00736 21.2574 0 22.5 0ZM5.15901 5.15901C6.03769 4.28033 7.46231 4.28033 8.34099 5.15901L12.841 9.65901C13.7197 10.5377 13.7197 11.9623 12.841 12.841C11.9623 13.7197 10.5377 13.7197 9.65901 12.841L5.15901 8.34099C4.28033 7.46231 4.28033 6.03769 5.15901 5.15901ZM39.841 5.15901C40.7197 6.03769 40.7197 7.46231 39.841 8.34099L35.341 12.841C34.4623 13.7197 33.0377 13.7197 32.159 12.841C31.2803 11.9623 31.2803 10.5377 32.159 9.65901L36.659 5.15901C37.5377 4.28033 38.9623 4.28033 39.841 5.15901ZM22.5 18C20.0146 18 18 20.0146 18 22.5C18 24.9854 20.0146 27 22.5 27C24.9854 27 27 24.9854 27 22.5C27 20.0146 24.9854 18 22.5 18ZM13.5 22.5C13.5 17.5293 17.5293 13.5 22.5 13.5C27.4707 13.5 31.5 17.5293 31.5 22.5C31.5 27.4707 27.4707 31.5 22.5 31.5C17.5293 31.5 13.5 27.4707 13.5 22.5ZM0 22.5C0 21.2574 1.00736 20.25 2.25 20.25H6.75C7.99264 20.25 9 21.2574 9 22.5C9 23.7426 7.99264 24.75 6.75 24.75H2.25C1.00736 24.75 0 23.7426 0 22.5ZM42.75 24.75H38.25C37.0074 24.75 36 23.7426 36 22.5C36 21.2574 37.0074 20.25 38.25 20.25H42.75C43.9926 20.25 45 21.2574 45 22.5C45 23.7426 43.9926 24.75 42.75 24.75ZM12.841 32.159C13.7197 33.0377 13.7197 34.4623 12.841 35.341L8.34099 39.841C7.46231 40.7197 6.03769 40.7197 5.15901 39.841C4.28033 38.9623 4.28033 37.5377 5.15901 36.659L9.65901 32.159C10.5377 31.2803 11.9623 31.2803 12.841 32.159ZM32.159 32.159C33.0377 31.2803 34.4623 31.2803 35.341 32.159L39.841 36.659C40.7197 37.5377 40.7197 38.9623 39.841 39.841C38.9623 40.7197 37.5377 40.7197 36.659 39.841L32.159 35.341C31.2803 34.4623 31.2803 33.0377 32.159 32.159ZM22.5 36C23.7426 36 24.75 37.0074 24.75 38.25V42.75C24.75 43.9926 23.7426 45 22.5 45C21.2574 45 20.25 43.9926 20.25 42.75V38.25C20.25 37.0074 21.2574 36 22.5 36Z" fill="black"/>
</svg>
