<svg width="10" height="45" viewBox="0 0 10 45" fill="none" xmlns="http://www.w3.org/2000/svg">
<path d="M10 39.8077C10 41.1848 9.47322 42.5055 8.53553 43.4792C7.59785 44.453 6.32608 45 5 45C3.67392 45 2.40215 44.453 1.46447 43.4792C0.526784 42.5055 0 41.1848 0 39.8077C0 38.4306 0.526784 37.1099 1.46447 36.1362C2.40215 35.1624 3.67392 34.6154 5 34.6154C6.32608 34.6154 7.59785 35.1624 8.53553 36.1362C9.47322 37.1099 10 38.4306 10 39.8077ZM10 22.5C10 23.8771 9.47322 25.1978 8.53553 26.1715C7.59785 27.1453 6.32608 27.6923 5 27.6923C3.67392 27.6923 2.40215 27.1453 1.46447 26.1715C0.526784 25.1978 0 23.8771 0 22.5C0 21.1229 0.526784 19.8022 1.46447 18.8285C2.40215 17.8547 3.67392 17.3077 5 17.3077C6.32608 17.3077 7.59785 17.8547 8.53553 18.8285C9.47322 19.8022 10 21.1229 10 22.5ZM10 5.19231C10 6.56939 9.47322 7.89008 8.53553 8.86382C7.59785 9.83757 6.32608 10.3846 5 10.3846C3.67392 10.3846 2.40215 9.83757 1.46447 8.86382C0.526784 7.89008 0 6.56939 0 5.19231C0 3.81522 0.526784 2.49454 1.46447 1.52079C2.40215 0.547045 3.67392 0 5 0C6.32608 0 7.59785 0.547045 8.53553 1.52079C9.47322 2.49454 10 3.81522 10 5.19231Z" fill="black"/>
</svg>
