<svg width="42" height="10" viewBox="0 0 42 10" fill="none" xmlns="http://www.w3.org/2000/svg">
<path d="M4.66667 0C7.244 0 9.33333 2.2385 9.33333 5C9.33333 7.7615 7.244 10 4.66667 10C2.08934 10 0 7.7615 0 5C0 2.2385 2.08934 0 4.66667 0Z" fill="black"/>
<path d="M21 0C23.5774 0 25.6667 2.2385 25.6667 5C25.6667 7.7615 23.5774 10 21 10C18.4226 10 16.3333 7.7615 16.3333 5C16.3333 2.2385 18.4226 0 21 0Z" fill="black"/>
<path d="M42 5C42 2.2385 39.9107 0 37.3333 0C34.7559 0 32.6667 2.2385 32.6667 5C32.6667 7.7615 34.7559 10 37.3333 10C39.9107 10 42 7.7615 42 5Z" fill="black"/>
</svg>
