<svg width="45" height="45" viewBox="0 0 45 45" fill="none" xmlns="http://www.w3.org/2000/svg">
<path fill-rule="evenodd" clip-rule="evenodd" d="M11.475 8.18182H2.25C1.00737 8.18182 0 9.09761 0 10.2273C0 11.3569 1.00737 12.2727 2.25 12.2727H4.63624L6.49066 39.2463C6.71301 42.4804 9.6631 45 13.2275 45H31.7725C35.3369 45 38.2869 42.4804 38.5094 39.2463L40.3639 12.2727H42.75C43.9927 12.2727 45 11.3569 45 10.2273C45 9.09761 43.9927 8.18182 42.75 8.18182H38.2664C38.2541 8.18172 38.2417 8.18172 38.2293 8.18182H33.525C32.4826 3.5136 27.9427 0 22.5 0C17.0573 0 12.5174 3.5136 11.475 8.18182ZM16.1341 8.18182H28.8659C27.9394 5.79847 25.4389 4.09091 22.5 4.09091C19.561 4.09091 17.0607 5.79847 16.1341 8.18182ZM35.8549 12.2727H9.14501L10.9819 38.9913C11.056 40.0692 12.0394 40.9091 13.2275 40.9091H31.7725C32.9607 40.9091 33.944 40.0692 34.0182 38.9913L35.8549 12.2727ZM27.6278 18.4289C28.8675 18.5079 29.8022 19.4852 29.7153 20.6122L28.7737 32.8549C28.687 33.982 27.6118 34.8316 26.3722 34.7529C25.1325 34.6739 24.1978 33.6966 24.2847 32.5696L25.2263 20.3269C25.313 19.1999 26.3882 18.3502 27.6278 18.4289ZM17.3722 18.4291C18.6118 18.3503 19.687 19.1999 19.7737 20.3269L20.7155 32.5698C20.8021 33.6966 19.8675 34.6741 18.628 34.7529C17.3882 34.8316 16.3131 33.982 16.2264 32.8551L15.2847 20.6122C15.198 19.4854 16.1326 18.5079 17.3722 18.4291Z" fill="black"/>
</svg>
